<svg width="12" height="16" viewBox="0 0 12 16" fill="none" xmlns="http://www.w3.org/2000/svg">
<path d="M6 13.975C7.63717 12.5392 8.87983 11.1468 9.728 9.798C10.576 8.44933 11 7.1885 11 6.0155C11 4.541 10.5333 3.3365 9.6 2.402C8.66667 1.46733 7.46667 1 6 1C4.53333 1 3.33333 1.46733 2.4 2.402C1.46667 3.3365 1 4.541 1 6.0155C1 7.1885 1.424 8.44933 2.272 9.798C3.12017 11.1468 4.36283 12.5392 6 13.975ZM6 15.25C4.02183 13.632 2.52725 12.0416 1.51625 10.4788C0.505417 8.91592 0 7.42817 0 6.0155C0 4.25267 0.56025 2.80933 1.68075 1.6855C2.80125 0.561833 4.241 0 6 0C7.759 0 9.19875 0.561833 10.3193 1.6855C11.4398 2.80933 12 4.25267 12 6.0155C12 7.42817 11.4946 8.91275 10.4837 10.4692C9.47275 12.0256 7.97817 13.6192 6 15.25ZM6 7.6155C6.4475 7.6155 6.82858 7.45808 7.14325 7.14325C7.45808 6.82858 7.6155 6.4475 7.6155 6C7.6155 5.5525 7.45808 5.17142 7.14325 4.85675C6.82858 4.54192 6.4475 4.3845 6 4.3845C5.5525 4.3845 5.17142 4.54192 4.85675 4.85675C4.54192 5.17142 4.3845 5.5525 4.3845 6C4.3845 6.4475 4.54192 6.82858 4.85675 7.14325C5.17142 7.45808 5.5525 7.6155 6 7.6155Z" fill="white"/>
</svg>
